<svg width="800" height="800" viewBox="0 0 800 800" fill="none" xmlns="http://www.w3.org/2000/svg">
<path d="M552.347 649.627C547.293 645.52 542.92 646.84 538.933 646.84C446.013 646.747 353.093 646.76 260.173 646.76C258.067 646.76 255.92 646.534 253.867 646.894C252.107 647.214 250.453 648.213 248.267 649.107C252.027 654.76 256.987 653.12 261.213 653.133C353.787 653.213 446.347 653.2 538.92 653.187C541.72 653.187 544.574 653.293 547.294 652.8C548.774 652.533 550.053 651.12 552.347 649.627ZM229.467 312.92C229.467 359.547 229.467 405.654 229.467 452.76C234.347 452.947 238.453 453.253 242.56 453.253C329.253 453.28 415.96 453.267 502.653 453.267C521.96 453.267 541.267 453.347 560.573 453.213C564.213 453.2 568.373 454.573 570.933 451.467C570.933 404.973 570.933 359.12 570.933 313.453C562.747 311.427 243.04 310.92 229.467 312.92ZM228.627 149.267C228.627 193.747 228.6 237.613 228.68 281.467C228.68 283.76 229.587 286.04 230.013 288.067C244.173 290.267 563.027 289.56 570.733 287.307C570.733 241.28 570.733 195.12 570.733 149.133C560.84 146.96 237.907 147.04 228.627 149.267ZM570.52 477.2C568.413 476.68 567.413 476.213 566.413 476.213C456.52 476.147 346.64 476.12 236.747 476.12C235.013 476.12 233.267 476.427 231.533 476.653C231.227 476.693 230.92 476.947 230.653 477.16C230.373 477.36 230.147 477.627 229.893 477.867C228.053 489.293 228.493 614.92 230.387 622.6C239.52 624.68 561.347 624.627 570.52 622.373C570.52 574.28 570.52 526.027 570.52 477.2ZM574.68 648.08C574.68 652.68 574.787 656.827 574.653 660.96C574.333 671.494 570.533 675.293 559.88 675.867C557.427 676 554.96 675.92 552.507 675.92C450.333 675.92 348.16 675.92 245.987 675.907C244.227 675.907 242.467 675.974 240.72 675.894C230.72 675.427 226.133 671 225.493 660.907C225.227 656.8 225.453 652.653 225.453 649.413C223.667 648.133 223.16 647.48 222.56 647.373C207.64 644.853 206.173 643.227 206.173 628.533C206.16 467.027 206.253 305.52 206 144C205.987 128.507 209.947 124.987 225.013 125C341.933 125.147 458.853 125.08 575.773 125.094C578.587 125.094 581.44 124.96 584.173 125.453C590.16 126.52 593.32 130.08 593.867 136.16C594.12 138.947 593.973 141.773 593.973 144.587C593.947 305.04 593.92 465.507 593.893 625.96C593.893 626.307 593.893 626.667 593.893 627.013C593.853 644.64 593.64 644.893 574.68 648.08Z" fill="#8A817C"/>
<path d="M400.853 510.013C411.333 510.013 421.827 509.867 432.307 510.054C441 510.214 444.427 513.493 444.347 520.933C444.267 527.84 439.933 532.573 432.44 532.667C411.467 532.92 390.493 532.827 369.533 532.733C367.16 532.72 364.64 532.134 362.467 531.174C357 528.76 354.84 524.24 355.867 518.347C356.76 513.147 359.947 510.24 366.253 510.107C377.787 509.84 389.32 510.027 400.853 510.027V510.013Z" fill="#8A817C"/>
<path d="M401.04 176.854C411.56 176.854 422.093 176.694 432.627 176.907C440.44 177.067 444.28 180.654 444.493 187.227C444.72 194.241 440.667 198.28 432.373 198.347C410.613 198.507 388.853 198.56 367.093 198.32C359.027 198.24 355.12 193.707 355.747 186.48C356.267 180.454 359.933 177.147 367.347 176.987C378.573 176.747 389.8 176.92 401.04 176.92C401.04 176.907 401.04 176.88 401.04 176.854Z" fill="#8A817C"/>
<path d="M400.746 345.8C411.253 345.8 421.773 346.174 432.253 345.667C440.067 345.294 444.68 350.534 444.507 356.8C444.32 363.627 439.933 368.214 432.293 368.294C411.293 368.52 390.28 368.427 369.267 368.387C367.547 368.387 365.747 368.187 364.107 367.68C358.347 365.894 355.24 361.4 355.76 355.894C356.28 350.334 359.987 346.387 366.093 345.987C372.72 345.56 379.4 345.827 386.04 345.8C390.947 345.787 395.853 345.8 400.746 345.8Z" fill="#8A817C"/>
</svg>
