<svg width="900" height="900" viewBox="0 0 900 900" fill="none" xmlns="http://www.w3.org/2000/svg">
<path d="M374.203 369.12C376.55 349 375.603 292.307 373.003 285.28C355.617 283.427 183.977 284.213 176.497 286.187C173.657 296.84 174.217 360.413 177.443 369.12C242.683 369.12 308.15 369.12 374.203 369.12ZM373.79 480.373C376.003 469.213 375.577 400.56 373.363 393.32C359.27 391.293 183.63 392 174.91 394.52C175.137 422.693 173.67 451.253 176.177 479.587C184.337 481.707 359.457 482.307 373.79 480.373ZM176.763 591.787C187.23 593.813 366.47 593.427 374.07 591.373C376.203 578.813 375.523 511.773 373.137 504.627C307.683 504.627 242.177 504.627 176.857 504.627C173.977 514.12 174.057 583.507 176.763 591.787ZM176.057 253.813C177.537 254.653 178.11 255.173 178.75 255.307C180.123 255.573 181.537 255.76 182.923 255.76C360.883 255.76 538.857 255.747 716.817 255.707C718.55 255.707 720.283 255.333 722.003 255.08C722.31 255.04 722.59 254.733 722.857 254.52C723.137 254.307 723.376 254.053 724.536 252.973C724.536 248.96 724.603 244.107 724.523 239.253C724.457 234.453 724.257 229.653 724.097 224.213C541.07 224.213 359.097 224.213 176.483 224.213C174.057 234.587 174.03 244.44 176.057 253.813ZM398.363 372.84C403.403 373.133 407.51 373.573 411.617 373.573C499.71 373.613 587.817 373.613 675.91 373.613C688.897 373.613 701.883 373.707 714.87 373.573C723.856 373.48 724.497 372.84 724.523 363.987C724.59 338.373 724.577 312.747 724.483 287.12C724.483 284.467 723.843 281.8 723.523 279.387C709.043 277.213 406.23 277.947 398.363 280.213C398.363 310.413 398.363 340.813 398.363 372.84ZM724.536 397.987C714.51 395.653 408.63 395.56 398.217 397.773C398.07 401.587 397.763 405.68 397.763 409.773C397.737 471.92 397.737 534.067 397.737 596.213C397.737 598.32 397.843 600.427 397.75 602.533C397.35 611.507 393.67 615.267 384.937 615.653C382.83 615.747 380.723 615.667 378.617 615.667C315.417 615.653 252.217 615.653 189.017 615.653C184.883 615.653 180.75 615.653 175.843 615.653C175.43 620.24 174.857 623.653 174.857 627.067C174.843 646.027 174.977 664.987 175.057 683.933C175.057 685.333 175.23 686.747 175.043 688.107C174.19 694.347 169.577 699.147 164.323 699.373C158.55 699.613 153.763 694.747 153.15 687.76C152.91 684.96 153.03 682.147 153.03 679.333C153.03 526.6 153.017 373.867 153.03 221.133C153.03 202.413 154.47 201.013 173.59 201.013C358.283 201 542.963 201 727.643 201C744.683 201 747.03 203.32 747.03 220.467C747.043 373.547 747.043 526.64 747.017 679.72C747.017 682.867 747.15 686.08 746.643 689.173C745.723 694.747 739.83 699.613 734.857 699.373C729.55 699.107 725.057 694.213 724.617 687.96C724.39 684.813 724.536 681.64 724.536 678.48C724.536 589.307 724.536 500.12 724.536 410.933C724.536 406.76 724.536 402.587 724.536 397.987Z" fill="#8A817C"/>
<path d="M561.15 335.973C552.377 335.973 543.603 336.147 534.843 335.92C527.923 335.747 523.017 331.213 522.71 325.333C522.443 320.187 526.963 315.36 533.43 314.454C537.577 313.867 541.803 313.68 545.99 313.667C558.937 313.64 571.897 314.04 584.843 313.733C590.643 313.6 595.537 315.107 598.523 319.8C601.99 325.253 599.163 335.96 588.497 335.947C579.377 335.947 570.257 335.947 561.15 335.947C561.15 335.96 561.15 335.973 561.15 335.973Z" fill="#8A817C"/>
<path d="M277.47 559.307C268.697 559.293 259.937 559.48 251.177 559.24C243.71 559.027 240.163 555.934 239.51 549.854C238.83 543.52 242.563 538.56 249.297 536.987C250.643 536.667 252.083 536.6 253.47 536.6C269.603 536.587 285.723 536.587 301.857 536.68C303.91 536.693 306.07 536.973 307.977 537.68C313.777 539.827 316.177 543.987 315.443 549.987C314.723 555.894 311.51 559.027 304.803 559.24C295.697 559.533 286.577 559.307 277.47 559.307Z" fill="#8A817C"/>
<path d="M277.444 447.693C268.697 447.693 259.95 447.867 251.217 447.64C244.003 447.44 240.15 444.107 239.43 438.227C238.657 431.827 242.15 427.307 249.377 425.813C252.084 425.24 254.924 425.147 257.697 425.133C272.03 425.08 286.364 425.08 300.697 425.16C302.764 425.16 304.897 425.48 306.883 426.04C313.377 427.867 316.27 432.133 315.51 438.427C314.83 444.093 311.35 447.4 304.723 447.613C295.63 447.92 286.537 447.693 277.444 447.693Z" fill="#8A817C"/>
<path d="M277.364 336C270.377 336 263.363 335.68 256.39 336.067C243.457 336.773 239.99 333.08 239.483 325.453C238.963 317.573 244.177 314.36 256.897 314.32C263.884 314.293 270.883 314.413 277.883 314.293C285.563 314.16 293.243 313.693 300.923 313.653C303.643 313.627 306.563 313.96 309.07 314.96C313.977 316.92 316.177 321.493 315.47 326.88C314.75 332.48 311.87 335.573 305.697 335.813C296.257 336.187 286.804 335.907 277.364 335.907C277.364 335.933 277.364 335.973 277.364 336Z" fill="#8A817C"/>
</svg>
