<svg width="800" height="800" viewBox="0 0 800 800" fill="none" xmlns="http://www.w3.org/2000/svg">
<path d="M357.243 585.081C360.403 587.521 363.175 590.881 368.727 590.534C365.8 585.228 362.456 583.241 357.243 585.081ZM497.268 336.041C512.476 343.081 528.98 340.014 539.08 329.868C547.419 321.494 551.099 310.068 547.699 301.934C531.191 312.854 514.777 323.708 497.268 336.041ZM227.787 363.028C242.8 362.868 256.687 348.134 256.44 332.614C256.153 314.521 245.277 303.521 227.848 303.708C210.693 303.894 197.975 316.774 197.517 333.294C197.12 347.654 212.053 364.654 227.787 363.028ZM365.921 216.081C329.141 240.788 293.831 264.401 258.351 288.974C264.064 295.321 268.857 300.641 273.679 305.988C276.027 304.734 277.635 304.054 279.06 303.094C298.825 289.828 318.576 276.548 338.307 263.241C348.175 256.574 357.976 249.828 367.848 243.174C370.556 241.348 373.388 239.481 372.312 235.721C370.605 229.748 368.493 223.894 365.921 216.081ZM485.243 162.241C470.656 142.148 436.195 140.161 413.059 157.054C391.868 172.521 382.008 207.268 394.917 224.521C425.02 203.828 455.364 183.401 485.243 162.241ZM215.345 386.014C223.237 448.814 230.951 510.214 238.699 571.614C238.78 572.254 239.28 572.868 239.639 573.454C239.812 573.748 240.088 573.988 240.357 574.201C240.631 574.414 240.955 574.561 242.045 575.201C246.432 573.948 251.404 572.414 256.437 571.121C261.544 569.801 262.736 566.788 262.012 561.708C259.892 546.801 258.277 531.841 256.404 516.894C251.613 478.708 246.813 440.508 241.952 402.321C241.259 396.881 240.192 391.481 239.291 386.014C230.969 386.014 223.769 386.014 215.345 386.014ZM185.796 652.734C188.1 653.468 189.072 654.041 190.045 654.041C257.456 654.094 324.867 654.108 392.279 654.108C394.017 654.108 395.759 653.841 397.491 653.641C397.783 653.601 398.071 653.241 398.293 652.974C398.496 652.734 398.607 652.414 399.215 651.281C390.921 637.214 382.848 623.014 365.897 615.761C348.192 608.201 331.285 598.774 313.937 590.348C311.192 589.014 307.983 588.028 304.963 587.961C270.944 587.174 239.517 595.068 213.016 617.414C201.763 626.908 192.451 638.268 185.796 652.734ZM617.613 227.161C609.948 218.934 604.347 211.694 597.559 205.854C574.173 185.694 547.051 174.814 515.905 174.294C510.705 174.201 506.421 175.121 502.163 178.068C469.291 200.801 436.38 223.481 403.341 245.974C398.403 249.334 395.453 253.508 393.508 259.041C387.473 276.228 385.98 293.881 386.963 311.908C388.016 331.254 394.401 348.881 403.864 365.548C404.496 366.668 405.861 367.361 407.783 369.028C477.099 322.161 546.353 275.334 617.613 227.161ZM365.66 272.161C356.131 278.374 348.809 283.014 341.627 287.868C323.304 300.228 305.127 312.801 286.699 325.001C282.197 327.974 279.875 331.148 279.699 336.814C279.316 349.201 274.379 360.094 265.788 368.908C261.56 373.254 260.931 377.494 261.695 383.134C265.224 409.174 268.325 435.268 271.664 461.334C274.78 485.668 278.013 509.988 281.168 534.321C282.204 542.308 283.291 550.294 284.093 558.321C284.52 562.574 286.516 564.388 290.763 564.761C302.616 565.774 314.427 567.374 326.295 568.081C329.413 568.268 332.825 566.321 335.852 564.828C359.587 553.188 387.083 564.614 394.555 589.361C395.157 591.361 396.007 593.534 395.759 595.494C394.555 605.041 398.907 612.041 404.903 618.908C415.153 630.641 422.219 644.401 427.88 658.854C432.241 669.988 427.879 676.748 415.883 676.868C394.821 677.094 373.756 676.961 352.692 676.961C294.064 676.961 235.437 676.961 176.809 676.948C173.652 676.948 170.468 677.108 167.34 676.774C158.199 675.801 153.903 669.894 156.996 661.454C162.452 646.574 169.717 632.588 179.569 620.041C188.955 608.094 199.625 597.508 212.445 589.294C217.133 586.294 217.659 582.281 217.048 577.494C215.323 563.921 213.671 550.348 211.945 536.788C208.007 505.841 204.027 474.894 200.093 443.948C197.221 421.348 194.635 398.708 191.332 376.161C190.725 372.014 187.657 368.041 185.107 364.414C169.051 341.641 171.936 311.921 192.347 293.854C201.255 285.961 211.635 281.428 223.705 280.454C228.021 280.108 232.772 278.748 236.331 276.361C278.011 248.441 319.452 220.174 361.103 192.214C366.051 188.894 369.055 185.041 370.997 179.361C382.669 145.254 407.185 126.508 442.603 123.281C465.652 121.188 486.212 129.414 503.157 145.254C508.149 149.921 513.016 151.814 519.817 152.174C572.631 155.041 613.307 179.041 641.721 223.668C646.273 230.814 645.267 235.428 637.88 240.534C618.833 253.694 599.831 266.948 580.347 279.441C573.769 283.654 571.695 287.974 572.584 295.641C576.747 331.574 551.109 356.201 524.876 361.508C510.569 364.401 496.507 363.161 484.157 355.588C476.567 350.934 471.677 352.734 465.403 357.134C448.74 368.814 431.772 380.068 414.839 391.361C402.788 399.401 398.056 398.361 389.937 386.148C369.537 355.441 361.405 321.668 364.755 285.041C365.064 281.668 365.235 278.268 365.66 272.161Z" fill="#8A817C"/>
</svg>
