<svg width="800" height="800" viewBox="0 0 800 800" fill="none" xmlns="http://www.w3.org/2000/svg">
<path d="M180.307 625.587C185.067 625.587 188.507 625.587 191.96 625.587C253.373 625.587 314.8 625.587 376.227 625.6C377.973 625.6 379.733 625.534 381.48 625.574C386.307 625.707 388.587 623.28 388.64 618.574C388.667 616.467 388.667 614.36 388.667 612.253C388.667 582.413 388.667 552.587 388.654 522.747C388.654 509.52 388.627 509.507 375.173 509.507C314.8 509.494 254.427 509.507 194.067 509.52C190.907 509.52 187.6 509.12 184.654 509.96C182.747 510.494 180.853 512.694 179.96 514.627C179.147 516.374 179.654 518.76 179.654 520.853C179.654 552.093 179.64 583.334 179.68 614.574C179.68 617.654 180.027 620.72 180.307 625.587ZM411.32 623.947C422.134 626.373 610.12 626.107 618.08 623.894C620.04 613.494 619.72 518.68 617.547 510.213C615.027 510 612.293 509.56 609.573 509.56C546.707 509.52 483.854 509.493 420.987 509.533C410.894 509.533 410.4 510.027 410.373 520.36C410.307 551.614 410.32 582.867 410.387 614.12C410.4 617.507 411.014 620.893 411.32 623.947ZM427.4 303.84C421.68 325.934 413.16 346.254 407.533 368.894C413.773 369.24 418.533 369.76 423.28 369.707C432.253 369.6 432.827 369.027 432.88 360.053C432.987 342.853 432.88 325.64 432.947 308.44C432.96 305.414 433.387 302.387 433.64 299.24C440.92 299.24 447.32 299.24 454.52 299.24C454.52 305 454.52 309.88 454.52 314.747C454.533 330.547 454.547 346.347 454.533 362.147C454.52 365.6 455.133 368.814 459.24 369.04C463.387 369.267 464.427 366.227 464.44 362.694C464.44 360.587 464.467 358.48 464.467 356.374C464.48 340.227 464.427 324.067 464.507 307.92C464.52 304.933 465.04 301.933 465.307 299.053C472.573 299.053 478.733 299.053 485.52 299.053C485.707 303.133 486 306.573 486.013 310C486.053 325.453 486.013 340.907 486.053 356.347C486.053 359.147 485.72 362.173 486.653 364.667C487.333 366.467 489.88 367.56 491.587 368.96C492.68 367.36 494.307 365.893 494.733 364.147C495.293 361.813 494.933 359.253 494.933 356.8C494.947 340.293 494.92 323.8 495 307.294C495.013 304.587 495.467 301.88 495.72 299.24C503.227 299.24 510.013 299.24 517.533 299.24C517.533 303.934 517.533 307.76 517.533 311.574C517.533 328.08 517.507 344.587 517.573 361.094C517.587 364.494 516.907 369.067 521.933 369.067C526.867 369.067 526.307 364.56 526.427 361.107C526.493 359 526.44 356.893 526.44 354.787C526.427 338.987 526.387 323.187 526.453 307.387C526.453 304.68 526.92 301.987 527.173 299.213C534.627 299.213 541.387 299.213 548.92 299.213C548.92 303.88 548.92 307.694 548.92 311.507C548.92 328.36 548.907 345.213 548.947 362.08C548.96 365.24 548.787 369.067 553.213 369.12C557.547 369.16 557.667 365.453 557.76 362.213C557.813 360.107 557.787 358 557.787 355.894C557.787 339.747 557.747 323.587 557.813 307.44C557.827 304.747 558.307 302.04 558.587 299.147C566.013 299.147 572.8 299.147 580.453 299.147C580.453 303.373 580.453 306.827 580.453 310.267C580.453 326.067 580.293 341.88 580.56 357.667C580.627 361.773 578.147 367.454 584.587 369.174C588.04 370.094 589.213 366.907 589.253 357.16C589.253 355.76 589.253 354.36 589.253 352.947C589.253 338.56 589.227 324.16 589.28 309.76C589.293 306.347 589.6 302.934 589.8 299.107C597.32 299.107 604.08 299.107 611.773 299.107C611.773 303.307 611.773 306.747 611.773 310.187C611.773 325.987 611.76 341.787 611.787 357.587C611.8 360.387 611.453 363.373 612.32 365.92C612.853 367.467 615.387 368.32 617.467 369.8C619.947 359.32 619.867 282.64 617.707 274.453C607.933 272.507 189.573 272.653 180.627 274.747C180.32 276.507 179.693 278.494 179.68 280.494C179.627 307.174 179.64 333.867 179.667 360.547C179.667 361.947 179.267 363.707 179.947 364.68C181.173 366.453 182.867 368.293 184.773 369C185.493 369.267 188.013 366.694 188.533 365.04C189.24 362.787 188.88 360.187 188.88 357.733C188.907 341.573 188.867 325.427 188.947 309.267C188.973 306.6 189.507 303.947 189.773 301.467C202.307 300.107 203.907 300.2 211.56 302.84C211.56 306.12 211.56 309.6 211.56 313.08C211.56 328.88 211.507 344.68 211.613 360.48C211.64 364.133 210.627 369.373 216.427 369.053C221.253 368.787 220.307 363.974 220.32 360.627C220.4 343.774 220.32 326.92 220.4 310.067C220.413 307.067 220.894 304.08 221.12 301.52C228.747 301.52 235.227 301.52 242.84 301.52C242.84 307.24 242.84 312.08 242.84 316.92C242.853 331.32 242.76 345.72 242.88 360.107C242.96 368.76 243.827 369.454 252.68 369.707C253.387 369.734 254.08 369.72 254.787 369.72C292.014 369.72 329.227 369.747 366.454 369.68C371.987 369.68 377.507 369.227 383.373 368.974C391.387 344.96 397.987 320.774 407.213 296.774C414.493 299.32 420.64 301.48 427.4 303.84ZM241.96 488.133C249.12 485.56 247.747 481.16 247.787 477.6C247.92 461.107 247.813 444.614 247.893 428.107C247.907 425.427 248.36 422.747 248.667 419.574C256.12 419.534 262.973 417.72 270.267 421.24C270.267 425.16 270.267 428.987 270.267 432.813C270.267 448.253 270.227 463.707 270.32 479.147C270.334 482.093 269.387 485.613 273.507 487.48C278.307 485.547 277.08 481.254 277.107 477.694C277.227 461.2 277.147 444.693 277.227 428.2C277.24 425.507 277.68 422.827 277.987 419.574C285.414 419.507 292.253 417.853 298.867 420.8C299.133 422.24 299.507 423.267 299.493 424.28C299.267 442.52 298.934 460.76 298.787 479C298.76 482.28 297.813 487.254 302.8 487.107C307.68 486.947 306.52 481.974 306.533 478.694C306.653 462.2 306.547 445.693 306.64 429.187C306.653 426.2 307.2 423.213 307.52 419.987C315.014 419.987 321.467 419.987 329.173 419.987C329.173 424.16 329.173 427.573 329.173 430.987C329.187 447.133 329.147 463.294 329.267 479.44C329.293 482.334 328.147 486 332.693 487.4C337.067 485.107 335.88 480.88 335.907 477.253C336.013 460.747 335.92 444.253 336.013 427.747C336.027 425.107 336.654 422.48 336.987 419.827C344.027 419.827 350.2 419.827 357.16 419.827C357.333 423.8 357.613 427.214 357.613 430.627C357.667 445.374 357.427 460.133 357.773 474.867C357.88 479.187 355.067 486.747 361.854 486.787C367.667 486.813 365.347 479.494 365.413 475.36C365.68 459.574 365.507 443.774 365.587 427.974C365.6 425.307 366.134 422.653 366.454 419.787C373.374 419.787 379.534 419.787 386.52 419.787C386.707 423.72 387 427.133 387.013 430.533C387.067 446.68 387 462.827 387.107 478.974C387.12 482.267 386.16 487.227 391.16 487.04C396.107 486.854 394.773 481.84 394.813 478.6C394.947 461.747 394.867 444.907 394.973 428.053C394.987 425.387 395.494 422.734 395.787 419.96C402.694 419.96 408.827 419.96 415.907 419.96C416.093 424.067 416.374 427.467 416.387 430.867C416.427 445.96 416.4 461.053 416.413 476.147C416.413 478.6 416.054 481.227 416.787 483.453C417.307 485.053 419.387 486.147 420.773 487.467C421.693 485.84 423.373 484.227 423.4 482.587C423.56 469.253 423.253 455.907 423.44 442.574C423.533 435.294 424.334 428.027 424.854 420.027C432.12 420.027 438.547 420.027 445.973 420.027C445.973 424.08 445.973 427.52 445.973 430.96C445.987 446.76 445.907 462.56 446.027 478.36C446.107 487.147 446.827 487.92 455.773 487.933C507.733 488 559.693 487.974 611.653 487.894C613.933 487.894 616.213 487.027 618.253 486.627C620.08 473.4 619.64 400.227 617.48 391.413C612.307 391.413 606.787 391.413 601.253 391.413C464.694 391.413 328.12 391.4 191.56 391.4C189.8 391.4 188.013 391.2 186.293 391.467C184.027 391.813 181.814 392.547 179.654 393.094C179.654 421.56 179.64 449.254 179.654 476.96C179.667 479.067 179.187 481.48 180.067 483.174C181 484.987 183.107 486.627 185.054 487.24C185.76 487.467 188.08 484.72 188.573 483.013C189.24 480.733 188.88 478.147 188.893 475.694C188.893 460.6 188.84 445.493 188.92 430.4C188.934 427.04 189.373 423.68 189.64 420.12C197.427 419.16 204.213 417.974 211.547 421.16C211.547 424.774 211.547 428.253 211.547 431.733C211.56 447.173 211.493 462.627 211.627 478.067C211.653 481.32 210.32 485.307 214.8 487.2C219.64 485.76 218.307 481.667 218.333 478.48C218.467 461.627 218.36 444.773 218.44 427.92C218.453 425.253 218.96 422.6 219.254 419.933C226.534 419.933 233.027 419.933 240.907 419.933C240.907 431.747 240.747 442.867 240.96 453.987C241.173 465 239.973 476.133 241.96 488.133ZM618.533 147.32C613.307 147.2 608.507 146.987 603.693 146.987C476.253 146.974 348.813 146.974 221.373 146.987C210.133 146.987 198.893 146.907 187.667 147.04C185.027 147.08 182.4 147.827 179.96 148.227C178.36 199.854 179.12 242.387 182 250.213C202.707 250.213 223.693 250.213 244.68 250.213C265.36 250.2 286.08 250.774 306.733 249.987C327.467 249.214 348.307 251.894 369.947 249.387C360.427 226.04 351.493 204.12 342.36 181.694C349.64 178.774 355.694 176.334 361.587 173.974C368.867 185.107 387.893 232.547 388.44 240.72C384.373 244.494 377.413 244.04 373.6 249.387C388.813 251.36 517.907 250.707 526.107 248.48C527.133 225.133 525.587 201.413 527 176.813C532.067 176.813 535.867 176.734 539.653 176.84C542.373 176.92 545.093 177.227 548.92 177.52C548.92 181.814 548.92 185.573 548.92 189.347C548.92 207.6 548.92 225.854 548.933 244.107C548.933 247.04 549.213 249.933 553.147 250.067C557.027 250.187 557.64 247.467 557.733 244.454C557.813 241.987 557.773 239.533 557.787 237.08C557.787 220.573 557.733 204.08 557.827 187.574C557.84 184.227 558.333 180.893 558.613 177.48C566.333 177.48 572.867 177.48 580.44 177.48C580.44 181.853 580.44 185.614 580.44 189.387C580.453 207.64 580.44 225.893 580.48 244.147C580.493 247.067 580.773 250.027 584.693 250.12C588.547 250.2 589.12 247.4 589.213 244.4C589.28 241.947 589.253 239.494 589.253 237.027C589.253 219.827 589.213 202.627 589.293 185.427C589.307 182.774 589.84 180.12 590.12 177.574C597.493 177.574 604 177.574 611.267 177.574C611.467 181.64 611.747 185.053 611.76 188.467C611.813 206.027 611.707 223.573 611.853 241.133C611.88 244.32 610.253 249.507 615.173 249.72C621.36 250 619.16 244.2 619.173 240.907C619.347 212.827 619.28 184.734 619.227 156.654C619.227 153.92 618.84 151.187 618.533 147.32ZM614.28 649.08C614.28 658.12 614.28 666.387 614.28 675.374C606.347 675.374 599.6 675.374 591.707 675.374C591.707 666.454 591.707 658.173 591.707 650.267C583.04 647.8 220.053 647.347 207.88 649.68C207.493 657.92 207.093 666.467 206.667 675.52C199.347 675.52 192.814 675.52 185.187 675.52C184.907 666.693 184.64 658.134 184.347 648.774C179.613 648.56 175.853 648.347 172.093 648.227C160.68 647.84 157.4 644.453 157.227 632.747C157.187 630.64 157.213 628.534 157.213 626.427C157.2 465.627 157.293 304.84 157 144.04C156.973 127.76 160.693 123.973 177.227 124C325.04 124.16 472.84 124.094 620.653 124.094C622.76 124.094 624.867 124.054 626.973 124.12C638.28 124.454 641.773 127.96 642.08 139.494C642.2 144.4 642.053 149.32 642.053 154.24C642.053 311.867 642.053 469.507 642.053 627.147C642.053 646.907 641.307 647.627 621.32 648.253C619.6 648.307 617.893 648.653 614.28 649.08Z" fill="#8A817C"/>
<path d="M190.267 174.96C196.667 174.96 203.214 174.96 209.747 174.96C212.054 182.48 212.414 236.373 210.094 247.453C203.72 247.453 197.2 247.453 190.68 247.453C188.427 239.987 188.04 186.654 190.267 174.96Z" fill="#8A817C"/>
<path d="M241.067 247.427C234.814 247.427 228.374 247.427 220.494 247.427C220.24 223.227 220.387 199.387 220.414 174.96C228.04 174.96 234.534 174.96 240.92 174.96C243.48 183.28 243.667 237.52 241.067 247.427Z" fill="#8A817C"/>
<path d="M251.733 174.747C259.8 174.747 266.027 174.747 273.427 174.747C273.427 182.907 273.427 190.734 273.427 198.574C273.427 206.614 273.427 214.667 273.427 222.72C273.427 230.694 273.427 238.654 273.427 247.307C269.187 247.64 266.16 247.974 263.12 248.094C260 248.214 256.88 248.12 252.52 248.12C250.947 223.56 252.147 199.653 251.733 174.747Z" fill="#8A817C"/>
<path d="M316.201 175.04C322.201 175.04 328.361 175.04 335.801 175.04C336.934 198.88 336.174 222.747 336.307 247.374C329.027 247.374 322.907 247.374 316.814 247.374C314.347 240.054 313.814 186.96 316.201 175.04Z" fill="#8A817C"/>
<path d="M283.214 174.747C291.094 174.747 296.96 174.747 304.227 174.747C305.494 198.827 304.587 222.68 304.867 247.32C297.574 247.32 291.454 247.32 284.014 247.32C282.44 223.547 283.76 199.68 283.214 174.747Z" fill="#8A817C"/>
<path d="M514.76 572.667C506 572.667 497.254 572.707 488.494 572.64C486.054 572.627 483.534 572.654 481.214 572.04C476.094 570.667 473.04 566.067 473.44 560.974C473.854 555.787 477.361 551.974 482.787 551.4C486.254 551.027 489.787 551.174 493.294 551.174C509.747 551.147 526.214 551.067 542.667 551.187C550.147 551.24 553.68 553.534 555.014 558.52C557.12 566.347 552.827 572.254 544.174 572.56C534.374 572.894 524.56 572.64 514.76 572.64C514.76 572.654 514.76 572.654 514.76 572.667Z" fill="#8A817C"/>
<path d="M284.907 572.613C274.747 572.613 264.574 572.387 254.414 572.694C246.414 572.934 241.28 563.894 244.907 556.96C246.907 553.134 249.96 551.227 254.187 551.227C274.507 551.2 294.84 551.067 315.174 551.307C321.974 551.387 325.68 555.547 325.76 561.774C325.854 568.08 322.347 572.174 315.4 572.454C305.254 572.854 295.08 572.56 284.907 572.56C284.907 572.574 284.907 572.6 284.907 572.613Z" fill="#8A817C"/>
</svg>
