<svg width="1029" height="1029" viewBox="0 0 1029 1029" fill="none" xmlns="http://www.w3.org/2000/svg">
<path d="M275.268 714.681C265.495 711.841 222.682 712.121 214.775 714.961C214.775 718.855 214.775 722.761 214.775 726.521C229.415 728.548 267.882 727.935 275.268 725.615C275.268 722.001 275.268 718.268 275.268 714.681ZM754.055 726.961C774.815 726.961 794.548 726.961 815.135 726.961C815.135 722.295 815.135 718.121 815.135 712.921C795.548 712.921 777.108 712.881 758.655 712.961C755.282 712.975 753.668 715.215 753.588 718.415C753.535 720.815 753.828 723.228 754.055 726.961ZM265.482 689.628C269.802 689.855 273.548 690.228 277.308 690.215C285.028 690.188 292.762 689.842 300.482 689.842C443.055 689.815 585.628 689.801 728.215 689.868C735.548 689.868 742.895 690.801 750.242 690.961C754.642 691.055 759.042 690.481 763.722 690.188C763.722 682.895 763.722 676.762 763.722 670.108C597.455 670.108 431.882 670.108 265.482 670.108C265.482 676.282 265.482 682.068 265.482 689.628ZM242.028 601.601C242.028 575.655 241.855 549.695 242.135 523.748C242.215 515.975 239.935 509.295 235.628 503.121C227.575 491.561 215.948 485.495 202.655 482.348C199.748 481.668 196.322 482.001 193.375 482.801C178.428 486.841 166.868 495.601 159.775 509.401C149.095 530.175 153.682 553.175 172.535 569.135C180.108 575.561 182.655 582.308 182.442 591.815C181.922 614.601 182.095 637.401 182.322 660.188C182.482 676.775 192.695 688.175 209.108 689.961C217.788 690.895 226.602 690.775 235.348 691.015C239.522 691.121 241.948 689.122 241.948 684.708C241.948 682.255 242.028 679.801 242.028 677.348C242.028 652.095 242.028 626.855 242.028 601.601ZM787.615 689.042C797.322 690.842 806.255 690.975 815.308 690.335C836.615 688.828 846.895 678.161 846.961 656.721C847.055 634.295 847.055 611.855 846.948 589.428C846.908 581.655 848.922 575.735 855.682 570.521C870.242 559.295 877.495 543.841 874.628 525.361C871.482 505.055 859.535 490.908 840.002 484.161C834.988 482.428 828.588 481.855 823.668 483.401C816.148 485.761 808.668 489.548 802.402 494.335C792.255 502.068 786.815 512.468 786.922 526.028C787.295 576.855 787.055 627.681 787.082 678.508C787.095 681.908 787.415 685.322 787.615 689.042ZM763.842 571.668C754.655 568.975 275.042 568.908 265.948 571.508C265.615 572.348 264.908 573.295 264.908 574.241C264.788 596.348 264.762 618.455 264.682 640.561C264.668 645.521 267.282 647.441 271.975 647.295C274.775 647.201 277.588 647.308 280.388 647.308C330.228 647.308 380.055 647.308 429.895 647.308C536.921 647.321 643.962 647.321 751.002 647.308C755.095 647.308 759.175 647.028 763.842 646.868C763.842 621.028 763.842 596.268 763.842 571.668ZM764.455 546.388C764.455 538.721 764.561 532.135 764.428 525.548C764.281 518.135 764.695 510.961 767.602 503.895C775.588 484.521 789.815 471.721 808.988 464.361C814.922 462.081 816.935 459.015 816.855 452.748C816.522 428.868 817.202 404.975 816.602 381.108C816.002 357.122 806.308 337.148 787.775 321.455C770.802 307.081 750.948 301.681 729.268 301.668C585.988 301.628 442.695 301.575 299.415 301.815C290.068 301.828 280.495 303.375 271.428 305.748C241.641 313.548 214.108 342.721 213.428 376.681C213.042 396.335 212.642 415.975 212.308 435.615C212.202 441.935 212.428 448.255 212.295 454.575C212.202 459.041 214.028 461.815 218.295 463.281C221.268 464.308 224.135 465.708 226.948 467.121C243.628 475.495 256.468 487.721 262.028 505.788C264.348 513.295 264.001 521.628 264.628 529.615C265.068 535.055 265.095 540.521 265.322 546.388C431.895 546.388 597.215 546.388 764.455 546.388ZM839.335 459.388C842.508 460.521 845.775 461.561 848.961 462.828C903.868 484.615 910.842 548.735 876.735 581.735C871.122 587.161 869.242 592.801 869.388 600.308C869.788 619.615 869.322 638.935 869.615 658.241C869.935 679.068 861.455 694.895 843.575 705.388C839.268 707.921 837.775 710.975 837.975 715.615C838.148 719.815 838.135 724.055 837.882 728.242C837.242 738.642 832.188 745.388 822.308 748.375C818.348 749.575 814.055 750.095 809.908 750.148C793.055 750.335 776.175 749.641 759.348 750.361C742.068 751.108 729.362 739.828 730.668 722.028C730.842 719.628 730.375 717.188 730.228 715.108C729.628 714.548 729.375 714.308 729.108 714.095C728.842 713.868 728.575 713.535 728.268 713.481C726.895 713.215 725.508 712.868 724.135 712.868C584.375 712.841 444.628 712.828 304.868 712.855C303.842 712.855 302.788 713.068 301.788 713.348C301.135 713.535 300.575 714.015 298.868 715.001C298.708 718.388 298.028 722.521 298.415 726.548C299.482 737.695 288.455 750.161 275.135 750.148C255.122 750.135 235.095 750.535 215.095 750.042C200.335 749.668 191.055 740.775 191.415 726.015C191.722 714.028 188.775 706.388 177.975 699.468C165.362 691.388 159.882 677.401 159.722 662.135C159.508 641.068 159.468 620.001 159.722 598.935C159.788 592.615 158.415 587.801 153.682 583.055C139.788 569.095 132.135 552.121 132.002 532.121C131.802 502.308 150.282 474.975 178.082 464.001C179.388 463.481 180.642 462.761 181.988 462.455C190.588 460.508 190.828 458.175 190.735 449.681C190.535 431.068 190.388 412.455 190.788 393.841C191.055 381.975 190.588 369.668 193.508 358.335C204.562 315.428 233.148 290.201 276.095 281.001C282.881 279.535 290.015 279.095 296.975 279.095C442.348 278.988 587.722 278.988 733.095 279.015C782.215 279.015 822.868 309.668 835.775 356.908C838.055 365.268 838.935 374.201 839.055 382.895C839.388 406.401 838.975 429.935 838.882 453.455C838.868 455.161 839.135 456.868 839.335 459.388Z" fill="#8A817C"/>
<path d="M563.935 374.548C563.948 370.361 563.708 366.148 564.002 361.988C564.442 355.815 568.882 351.361 574.508 350.961C579.815 350.575 585.748 354.895 586.162 360.841C586.802 369.868 586.828 379.015 586.202 388.041C585.775 394.028 579.895 398.348 574.602 398.015C568.788 397.641 564.482 393.441 563.988 387.108C563.668 382.948 563.935 378.735 563.935 374.548Z" fill="#8A817C"/>
<path d="M684.202 374.055C684.202 369.882 683.882 365.668 684.282 361.522C684.842 355.482 689.775 350.962 695.228 350.895C700.148 350.828 705.842 354.855 706.242 360.295C706.909 369.642 706.895 379.108 706.268 388.455C705.895 393.988 700.375 398.095 695.468 398.108C690.068 398.108 684.935 393.602 684.335 387.642C683.895 383.162 684.255 378.588 684.255 374.055C684.229 374.055 684.215 374.055 684.202 374.055Z" fill="#8A817C"/>
<path d="M563.868 470.388C563.868 466.535 563.668 462.681 563.922 458.855C564.348 452.415 568.521 447.935 574.068 447.535C580.041 447.121 585.855 451.548 586.268 458.041C586.801 466.735 586.815 475.521 586.188 484.215C585.762 490.201 580.375 493.908 574.335 493.721C568.121 493.535 564.401 489.841 563.948 482.961C563.681 478.788 563.908 474.575 563.908 470.388C563.895 470.388 563.881 470.388 563.868 470.388Z" fill="#8A817C"/>
<path d="M466.028 470.988C466.028 475.175 466.522 479.415 465.922 483.508C464.895 490.428 459.988 494.148 453.575 493.668C447.455 493.228 443.868 489.615 443.561 482.615C443.228 474.948 443.202 467.255 443.522 459.601C443.842 452.161 447.921 447.828 454.028 447.535C459.948 447.255 464.815 451.401 465.828 458.468C466.428 462.561 465.935 466.801 465.935 470.988C465.975 470.988 466.001 470.988 466.028 470.988Z" fill="#8A817C"/>
<path d="M684.188 470.122C684.188 466.295 683.948 462.442 684.255 458.642C684.762 452.308 689.148 447.815 694.588 447.575C700.708 447.282 706.215 451.695 706.562 458.148C707.015 466.482 707.015 474.868 706.575 483.215C706.242 489.402 701.362 493.588 695.628 493.682C689.242 493.802 684.802 489.708 684.215 482.655C683.868 478.508 684.148 474.308 684.148 470.122C684.162 470.122 684.175 470.122 684.188 470.122Z" fill="#8A817C"/>
<path d="M466.255 375.175C466.255 378.668 466.495 382.188 466.202 385.668C465.615 392.588 460.055 398.121 454.175 398.001C448.575 397.881 443.855 392.801 443.575 385.841C443.269 378.148 443.242 370.415 443.589 362.721C443.909 355.788 448.615 351.055 454.535 350.868C459.375 350.721 464.948 355.455 465.882 361.548C466.575 365.988 466.028 370.628 466.028 375.161C466.095 375.175 466.175 375.175 466.255 375.175Z" fill="#8A817C"/>
<path d="M323.442 373.442C323.442 369.602 323.175 365.735 323.495 361.921C324.068 355.081 327.962 351.095 333.815 350.881C339.655 350.668 344.362 354.601 344.735 361.215C345.242 369.921 345.215 378.695 344.802 387.415C344.495 393.735 339.468 398.175 334.002 398.068C328.522 397.975 323.988 393.508 323.455 387.068C323.082 382.561 323.388 377.988 323.388 373.442C323.402 373.442 323.415 373.442 323.442 373.442Z" fill="#8A817C"/>
<path d="M344.855 470.415C344.855 474.962 345.202 479.548 344.775 484.055C344.162 490.482 340.628 493.535 334.522 493.682C327.975 493.855 323.868 490.562 323.522 483.735C323.082 475.348 323.095 466.922 323.508 458.535C323.855 451.508 327.802 447.775 333.815 447.588C340.335 447.388 344.228 451.188 344.868 458.855C345.188 462.682 344.922 466.562 344.922 470.415C344.895 470.415 344.882 470.415 344.855 470.415Z" fill="#8A817C"/>
</svg>
